<svg width="141" height="104" viewBox="0 0 141 104" fill="none" xmlns="http://www.w3.org/2000/svg">
<path d="M0 2C0 0.895432 0.89543 0 2 0H139C140.105 0 141 0.895431 141 2V102C141 103.105 140.105 104 139 104H2C0.895433 104 0 103.105 0 102V2Z" fill="white" fill-opacity="0.68"/>
<path d="M28 18.5C28 22.6421 24.6421 26 20.5 26C16.3579 26 13 22.6421 13 18.5C13 14.3579 16.3579 11 20.5 11C24.6421 11 28 14.3579 28 18.5Z" fill="#10B981"/>
<path d="M28 41.5C28 45.6421 24.6421 49 20.5 49C16.3579 49 13 45.6421 13 41.5C13 37.3579 16.3579 34 20.5 34C24.6421 34 28 37.3579 28 41.5Z" fill="#F43F5E"/>
<path d="M20.7942 57L28.5885 70.5H13L20.7942 57Z" fill="#10B981"/>
<path d="M20.7942 79L28.5885 92.5H13L20.7942 79Z" fill="#F43F5E"/>
<path d="M27.5 18.5C27.5 22.366 24.366 25.5 20.5 25.5C16.634 25.5 13.5 22.366 13.5 18.5C13.5 14.634 16.634 11.5 20.5 11.5C24.366 11.5 27.5 14.634 27.5 18.5ZM27.5 41.5C27.5 45.366 24.366 48.5 20.5 48.5C16.634 48.5 13.5 45.366 13.5 41.5C13.5 37.634 16.634 34.5 20.5 34.5C24.366 34.5 27.5 37.634 27.5 41.5ZM13.866 70L20.7942 58L27.7224 70H13.866ZM13.866 92L20.7942 80L27.7224 92H13.866Z" stroke="#4E4E4E"/>
<path d="M40.4492 18.417V18.3047C40.4492 17.9238 40.5046 17.5706 40.6152 17.2451C40.7259 16.9163 40.8854 16.6315 41.0938 16.3906C41.3021 16.1465 41.5544 15.9577 41.8506 15.8242C42.1468 15.6875 42.4788 15.6191 42.8467 15.6191C43.2178 15.6191 43.5514 15.6875 43.8477 15.8242C44.1471 15.9577 44.401 16.1465 44.6094 16.3906C44.821 16.6315 44.9821 16.9163 45.0928 17.2451C45.2035 17.5706 45.2588 17.9238 45.2588 18.3047V18.417C45.2588 18.7979 45.2035 19.151 45.0928 19.4766C44.9821 19.8021 44.821 20.0869 44.6094 20.3311C44.401 20.5719 44.1488 20.7607 43.8525 20.8975C43.5596 21.0309 43.2275 21.0977 42.8564 21.0977C42.4854 21.0977 42.1517 21.0309 41.8555 20.8975C41.5592 20.7607 41.3053 20.5719 41.0938 20.3311C40.8854 20.0869 40.7259 19.8021 40.6152 19.4766C40.5046 19.151 40.4492 18.7979 40.4492 18.417ZM41.3525 18.3047V18.417C41.3525 18.6807 41.3835 18.9297 41.4453 19.1641C41.5072 19.3952 41.5999 19.6003 41.7236 19.7793C41.8506 19.9583 42.0085 20.0999 42.1973 20.2041C42.3861 20.305 42.6058 20.3555 42.8564 20.3555C43.1038 20.3555 43.3203 20.305 43.5059 20.2041C43.6947 20.0999 43.8509 19.9583 43.9746 19.7793C44.0983 19.6003 44.1911 19.3952 44.2529 19.1641C44.318 18.9297 44.3506 18.6807 44.3506 18.417V18.3047C44.3506 18.0443 44.318 17.7985 44.2529 17.5674C44.1911 17.333 44.0967 17.1263 43.9697 16.9473C43.846 16.765 43.6898 16.6217 43.501 16.5176C43.3154 16.4134 43.0973 16.3613 42.8467 16.3613C42.5993 16.3613 42.3812 16.4134 42.1924 16.5176C42.0068 16.6217 41.8506 16.765 41.7236 16.9473C41.5999 17.1263 41.5072 17.333 41.4453 17.5674C41.3835 17.7985 41.3525 18.0443 41.3525 18.3047Z" fill="#373434"/>
<path d="M47.7295 20.0625L49.0869 15.7168H49.6826L49.5654 16.5811L48.1836 21H47.6025L47.7295 20.0625ZM46.8164 15.7168L47.9736 20.1113L48.0566 21H47.4463L45.9131 15.7168H46.8164ZM50.9814 20.0771L52.085 15.7168H52.9834L51.4502 21H50.8447L50.9814 20.0771ZM49.8145 15.7168L51.1426 19.9893L51.2939 21H50.7178L49.2969 16.5713L49.1797 15.7168H49.8145Z" fill="#373434"/>
<path d="M54.8145 16.8447V21H53.9111V15.7168H54.7656L54.8145 16.8447ZM54.5996 18.1582L54.2236 18.1436C54.2269 17.7822 54.2806 17.4486 54.3848 17.1426C54.4889 16.8333 54.6354 16.5648 54.8242 16.3369C55.013 16.109 55.2376 15.9333 55.498 15.8096C55.7617 15.6826 56.0531 15.6191 56.3721 15.6191C56.6325 15.6191 56.8669 15.6549 57.0752 15.7266C57.2835 15.7949 57.4609 15.9056 57.6074 16.0586C57.7572 16.2116 57.8711 16.4102 57.9492 16.6543C58.0273 16.8952 58.0664 17.1898 58.0664 17.5381V21H57.1582V17.5283C57.1582 17.2516 57.1175 17.0303 57.0361 16.8643C56.9548 16.695 56.8359 16.5729 56.6797 16.498C56.5234 16.4199 56.3314 16.3809 56.1035 16.3809C55.8789 16.3809 55.6738 16.4281 55.4883 16.5225C55.306 16.6169 55.1481 16.7471 55.0146 16.9131C54.8844 17.0791 54.7819 17.2695 54.707 17.4844C54.6354 17.696 54.5996 17.9206 54.5996 18.1582Z" fill="#373434"/>
<path d="M62.8223 16.7324V23.0312H61.9141V15.7168H62.7441L62.8223 16.7324ZM66.3818 18.3145V18.417C66.3818 18.8011 66.3363 19.1576 66.2451 19.4863C66.154 19.8118 66.0205 20.0951 65.8447 20.3359C65.6722 20.5768 65.459 20.764 65.2051 20.8975C64.9512 21.0309 64.6598 21.0977 64.3311 21.0977C63.9958 21.0977 63.6995 21.0423 63.4424 20.9316C63.1852 20.821 62.9671 20.6598 62.7881 20.4482C62.609 20.2367 62.4658 19.9827 62.3584 19.6865C62.2542 19.3903 62.1826 19.0566 62.1436 18.6855V18.1387C62.1826 17.748 62.2559 17.3981 62.3633 17.0889C62.4707 16.7796 62.6123 16.516 62.7881 16.2979C62.9671 16.0765 63.1836 15.9089 63.4375 15.7949C63.6914 15.6777 63.9844 15.6191 64.3164 15.6191C64.6484 15.6191 64.943 15.6842 65.2002 15.8145C65.4574 15.9414 65.6738 16.1237 65.8496 16.3613C66.0254 16.599 66.1572 16.8838 66.2451 17.2158C66.3363 17.5446 66.3818 17.9108 66.3818 18.3145ZM65.4736 18.417V18.3145C65.4736 18.0508 65.446 17.8034 65.3906 17.5723C65.3353 17.3379 65.249 17.1328 65.1318 16.957C65.0179 16.778 64.8714 16.638 64.6924 16.5371C64.5133 16.4329 64.3001 16.3809 64.0527 16.3809C63.8249 16.3809 63.6263 16.4199 63.457 16.498C63.291 16.5762 63.1494 16.682 63.0322 16.8154C62.915 16.9456 62.819 17.0954 62.7441 17.2646C62.6725 17.4307 62.6188 17.6032 62.583 17.7822V19.0469C62.6481 19.2747 62.7393 19.4896 62.8564 19.6914C62.9736 19.89 63.1299 20.0511 63.3252 20.1748C63.5205 20.2952 63.7663 20.3555 64.0625 20.3555C64.3066 20.3555 64.5166 20.305 64.6924 20.2041C64.8714 20.0999 65.0179 19.9583 65.1318 19.7793C65.249 19.6003 65.3353 19.3952 65.3906 19.1641C65.446 18.9297 65.4736 18.6807 65.4736 18.417Z" fill="#373434"/>
<path d="M68.4375 16.5469V21H67.5342V15.7168H68.4131L68.4375 16.5469ZM70.0879 15.6875L70.083 16.5273C70.0081 16.5111 69.9365 16.5013 69.8682 16.498C69.8031 16.4915 69.7282 16.4883 69.6436 16.4883C69.4352 16.4883 69.2513 16.5208 69.0918 16.5859C68.9323 16.651 68.7972 16.7422 68.6865 16.8594C68.5758 16.9766 68.488 17.1165 68.4229 17.2793C68.361 17.4388 68.3203 17.6146 68.3008 17.8066L68.0469 17.9531C68.0469 17.6341 68.0778 17.3346 68.1396 17.0547C68.2048 16.7747 68.304 16.5273 68.4375 16.3125C68.571 16.0944 68.7402 15.9251 68.9453 15.8047C69.1536 15.681 69.401 15.6191 69.6875 15.6191C69.7526 15.6191 69.8275 15.6273 69.9121 15.6436C69.9967 15.6566 70.0553 15.6712 70.0879 15.6875Z" fill="#373434"/>
<path d="M70.5859 18.417V18.3047C70.5859 17.9238 70.6413 17.5706 70.752 17.2451C70.8626 16.9163 71.0221 16.6315 71.2305 16.3906C71.4388 16.1465 71.6911 15.9577 71.9873 15.8242C72.2835 15.6875 72.6156 15.6191 72.9834 15.6191C73.3545 15.6191 73.6882 15.6875 73.9844 15.8242C74.2839 15.9577 74.5378 16.1465 74.7461 16.3906C74.9577 16.6315 75.1188 16.9163 75.2295 17.2451C75.3402 17.5706 75.3955 17.9238 75.3955 18.3047V18.417C75.3955 18.7979 75.3402 19.151 75.2295 19.4766C75.1188 19.8021 74.9577 20.0869 74.7461 20.3311C74.5378 20.5719 74.2855 20.7607 73.9893 20.8975C73.6963 21.0309 73.3643 21.0977 72.9932 21.0977C72.6221 21.0977 72.2884 21.0309 71.9922 20.8975C71.696 20.7607 71.4421 20.5719 71.2305 20.3311C71.0221 20.0869 70.8626 19.8021 70.752 19.4766C70.6413 19.151 70.5859 18.7979 70.5859 18.417ZM71.4893 18.3047V18.417C71.4893 18.6807 71.5202 18.9297 71.582 19.1641C71.6439 19.3952 71.7367 19.6003 71.8604 19.7793C71.9873 19.9583 72.1452 20.0999 72.334 20.2041C72.5228 20.305 72.7425 20.3555 72.9932 20.3555C73.2406 20.3555 73.457 20.305 73.6426 20.2041C73.8314 20.0999 73.9876 19.9583 74.1113 19.7793C74.235 19.6003 74.3278 19.3952 74.3896 19.1641C74.4548 18.9297 74.4873 18.6807 74.4873 18.417V18.3047C74.4873 18.0443 74.4548 17.7985 74.3896 17.5674C74.3278 17.333 74.2334 17.1263 74.1064 16.9473C73.9827 16.765 73.8265 16.6217 73.6377 16.5176C73.4521 16.4134 73.234 16.3613 72.9834 16.3613C72.736 16.3613 72.5179 16.4134 72.3291 16.5176C72.1436 16.6217 71.9873 16.765 71.8604 16.9473C71.7367 17.1263 71.6439 17.333 71.582 17.5674C71.5202 17.7985 71.4893 18.0443 71.4893 18.3047Z" fill="#373434"/>
<path d="M77.7344 21H76.8311V15.2578C76.8311 14.8574 76.9092 14.5189 77.0654 14.2422C77.2217 13.9655 77.4447 13.7555 77.7344 13.6123C78.0241 13.4691 78.3675 13.3975 78.7646 13.3975C78.999 13.3975 79.2285 13.4268 79.4531 13.4854C79.6777 13.5407 79.9089 13.6107 80.1465 13.6953L79.9951 14.457C79.8454 14.3984 79.6712 14.3431 79.4727 14.291C79.2773 14.2357 79.0625 14.208 78.8281 14.208C78.4408 14.208 78.1608 14.2959 77.9883 14.4717C77.819 14.6442 77.7344 14.9062 77.7344 15.2578V21ZM78.8135 15.7168V16.4102H75.9961V15.7168H78.8135ZM80.5908 15.7168V21H79.6875V15.7168H80.5908Z" fill="#373434"/>
<path d="M84.2871 15.7168V16.4102H81.4307V15.7168H84.2871ZM82.3975 14.4326H83.3008V19.6914C83.3008 19.8704 83.3285 20.0055 83.3838 20.0967C83.4391 20.1878 83.5107 20.248 83.5986 20.2773C83.6865 20.3066 83.7809 20.3213 83.8818 20.3213C83.9567 20.3213 84.0348 20.3148 84.1162 20.3018C84.2008 20.2855 84.2643 20.2725 84.3066 20.2627L84.3115 21C84.2399 21.0228 84.1455 21.0439 84.0283 21.0635C83.9144 21.0863 83.776 21.0977 83.6133 21.0977C83.3919 21.0977 83.1885 21.0537 83.0029 20.9658C82.8174 20.8779 82.6693 20.7314 82.5586 20.5264C82.4512 20.318 82.3975 20.0381 82.3975 19.6865V14.4326Z" fill="#373434"/>
<path d="M88.4619 20.0967V17.377C88.4619 17.1686 88.4196 16.988 88.335 16.835C88.2536 16.6787 88.1299 16.5583 87.9639 16.4736C87.7979 16.389 87.5928 16.3467 87.3486 16.3467C87.1208 16.3467 86.9206 16.3857 86.748 16.4639C86.5788 16.542 86.4453 16.6445 86.3477 16.7715C86.2533 16.8984 86.2061 17.0352 86.2061 17.1816H85.3027C85.3027 16.9928 85.3516 16.8057 85.4492 16.6201C85.5469 16.4346 85.6868 16.2669 85.8691 16.1172C86.0547 15.9642 86.276 15.8438 86.5332 15.7559C86.7936 15.6647 87.0833 15.6191 87.4023 15.6191C87.7865 15.6191 88.125 15.6842 88.418 15.8145C88.7142 15.9447 88.9453 16.1416 89.1113 16.4053C89.2806 16.6657 89.3652 16.9928 89.3652 17.3867V19.8477C89.3652 20.0234 89.3799 20.2106 89.4092 20.4092C89.4417 20.6077 89.4889 20.7786 89.5508 20.9219V21H88.6084C88.5628 20.8958 88.527 20.7575 88.501 20.585C88.4749 20.4092 88.4619 20.2464 88.4619 20.0967ZM88.6182 17.7969L88.6279 18.4316H87.7148C87.4577 18.4316 87.2282 18.4528 87.0264 18.4951C86.8245 18.5342 86.6553 18.5944 86.5186 18.6758C86.3818 18.7572 86.2777 18.8597 86.2061 18.9834C86.1344 19.1038 86.0986 19.2454 86.0986 19.4082C86.0986 19.5742 86.1361 19.7256 86.2109 19.8623C86.2858 19.999 86.3981 20.1081 86.5479 20.1895C86.7008 20.2676 86.888 20.3066 87.1094 20.3066C87.3861 20.3066 87.6302 20.248 87.8418 20.1309C88.0534 20.0137 88.221 19.8704 88.3447 19.7012C88.4717 19.5319 88.54 19.3675 88.5498 19.208L88.9355 19.6426C88.9128 19.7793 88.8509 19.9307 88.75 20.0967C88.6491 20.2627 88.514 20.4222 88.3447 20.5752C88.1787 20.7249 87.9801 20.8503 87.749 20.9512C87.5212 21.0488 87.264 21.0977 86.9775 21.0977C86.6195 21.0977 86.3053 21.0277 86.0352 20.8877C85.7682 20.7477 85.5599 20.5605 85.4102 20.3262C85.2637 20.0885 85.1904 19.8232 85.1904 19.5303C85.1904 19.2471 85.2458 18.998 85.3564 18.7832C85.4671 18.5651 85.6266 18.3844 85.835 18.2412C86.0433 18.0947 86.2939 17.984 86.5869 17.9092C86.8799 17.8343 87.207 17.7969 87.5684 17.7969H88.6182Z" fill="#373434"/>
<path d="M90.7812 13.5H91.6895V19.9746L91.6113 21H90.7812V13.5ZM95.2588 18.3145V18.417C95.2588 18.8011 95.2132 19.1576 95.1221 19.4863C95.0309 19.8118 94.8975 20.0951 94.7217 20.3359C94.5459 20.5768 94.3311 20.764 94.0771 20.8975C93.8232 21.0309 93.5319 21.0977 93.2031 21.0977C92.8678 21.0977 92.5732 21.0407 92.3193 20.9268C92.0687 20.8096 91.8571 20.6419 91.6846 20.4238C91.512 20.2057 91.3737 19.9421 91.2695 19.6328C91.1686 19.3236 91.0986 18.9753 91.0596 18.5879V18.1387C91.0986 17.748 91.1686 17.3981 91.2695 17.0889C91.3737 16.7796 91.512 16.516 91.6846 16.2979C91.8571 16.0765 92.0687 15.9089 92.3193 15.7949C92.57 15.6777 92.8613 15.6191 93.1934 15.6191C93.5254 15.6191 93.82 15.6842 94.0771 15.8145C94.3343 15.9414 94.5492 16.1237 94.7217 16.3613C94.8975 16.599 95.0309 16.8838 95.1221 17.2158C95.2132 17.5446 95.2588 17.9108 95.2588 18.3145ZM94.3506 18.417V18.3145C94.3506 18.0508 94.3262 17.8034 94.2773 17.5723C94.2285 17.3379 94.1504 17.1328 94.043 16.957C93.9355 16.778 93.7939 16.638 93.6182 16.5371C93.4424 16.4329 93.2259 16.3809 92.9688 16.3809C92.7409 16.3809 92.5423 16.4199 92.373 16.498C92.207 16.5762 92.0654 16.682 91.9482 16.8154C91.8311 16.9456 91.735 17.0954 91.6602 17.2646C91.5885 17.4307 91.5348 17.6032 91.499 17.7822V18.959C91.5511 19.1868 91.6357 19.4066 91.7529 19.6182C91.8734 19.8265 92.0329 19.9974 92.2314 20.1309C92.4333 20.2643 92.6823 20.3311 92.9785 20.3311C93.2227 20.3311 93.431 20.2822 93.6035 20.1846C93.7793 20.0837 93.9209 19.9453 94.0283 19.7695C94.139 19.5938 94.2204 19.3903 94.2725 19.1592C94.3245 18.9281 94.3506 18.6807 94.3506 18.417Z" fill="#373434"/>
<path d="M97.3828 13.5V21H96.4746V13.5H97.3828Z" fill="#373434"/>
<path d="M101.025 21.0977C100.658 21.0977 100.324 21.0358 100.024 20.9121C99.7282 20.7852 99.4727 20.6077 99.2578 20.3799C99.0462 20.152 98.8835 19.8818 98.7695 19.5693C98.6556 19.2568 98.5986 18.915 98.5986 18.5439V18.3389C98.5986 17.9092 98.6621 17.5267 98.7891 17.1914C98.916 16.8529 99.0885 16.5664 99.3066 16.332C99.5247 16.0977 99.7721 15.9202 100.049 15.7998C100.326 15.6794 100.612 15.6191 100.908 15.6191C101.286 15.6191 101.611 15.6842 101.885 15.8145C102.161 15.9447 102.388 16.127 102.563 16.3613C102.739 16.5924 102.869 16.8659 102.954 17.1816C103.039 17.4941 103.081 17.8359 103.081 18.207V18.6123H99.1357V17.875H102.178V17.8066C102.165 17.5723 102.116 17.3444 102.031 17.123C101.95 16.9017 101.82 16.7194 101.641 16.5762C101.462 16.4329 101.217 16.3613 100.908 16.3613C100.703 16.3613 100.514 16.4053 100.342 16.4932C100.169 16.5778 100.021 16.7048 99.8975 16.874C99.7738 17.0433 99.6777 17.25 99.6094 17.4941C99.541 17.7383 99.5068 18.0199 99.5068 18.3389V18.5439C99.5068 18.7946 99.541 19.0306 99.6094 19.252C99.681 19.4701 99.7835 19.6621 99.917 19.8281C100.054 19.9941 100.218 20.1243 100.41 20.2188C100.605 20.3132 100.827 20.3604 101.074 20.3604C101.393 20.3604 101.663 20.2952 101.885 20.165C102.106 20.0348 102.3 19.8607 102.466 19.6426L103.013 20.0771C102.899 20.2497 102.754 20.4141 102.578 20.5703C102.402 20.7266 102.186 20.8535 101.929 20.9512C101.675 21.0488 101.374 21.0977 101.025 21.0977Z" fill="#373434"/>
<path d="M40.4492 41.417V41.3047C40.4492 40.9238 40.5046 40.5706 40.6152 40.2451C40.7259 39.9163 40.8854 39.6315 41.0938 39.3906C41.3021 39.1465 41.5544 38.9577 41.8506 38.8242C42.1468 38.6875 42.4788 38.6191 42.8467 38.6191C43.2178 38.6191 43.5514 38.6875 43.8477 38.8242C44.1471 38.9577 44.401 39.1465 44.6094 39.3906C44.821 39.6315 44.9821 39.9163 45.0928 40.2451C45.2035 40.5706 45.2588 40.9238 45.2588 41.3047V41.417C45.2588 41.7979 45.2035 42.151 45.0928 42.4766C44.9821 42.8021 44.821 43.0869 44.6094 43.3311C44.401 43.5719 44.1488 43.7607 43.8525 43.8975C43.5596 44.0309 43.2275 44.0977 42.8564 44.0977C42.4854 44.0977 42.1517 44.0309 41.8555 43.8975C41.5592 43.7607 41.3053 43.5719 41.0938 43.3311C40.8854 43.0869 40.7259 42.8021 40.6152 42.4766C40.5046 42.151 40.4492 41.7979 40.4492 41.417ZM41.3525 41.3047V41.417C41.3525 41.6807 41.3835 41.9297 41.4453 42.1641C41.5072 42.3952 41.5999 42.6003 41.7236 42.7793C41.8506 42.9583 42.0085 43.0999 42.1973 43.2041C42.3861 43.305 42.6058 43.3555 42.8564 43.3555C43.1038 43.3555 43.3203 43.305 43.5059 43.2041C43.6947 43.0999 43.8509 42.9583 43.9746 42.7793C44.0983 42.6003 44.1911 42.3952 44.2529 42.1641C44.318 41.9297 44.3506 41.6807 44.3506 41.417V41.3047C44.3506 41.0443 44.318 40.7985 44.2529 40.5674C44.1911 40.333 44.0967 40.1263 43.9697 39.9473C43.846 39.765 43.6898 39.6217 43.501 39.5176C43.3154 39.4134 43.0973 39.3613 42.8467 39.3613C42.5993 39.3613 42.3812 39.4134 42.1924 39.5176C42.0068 39.6217 41.8506 39.765 41.7236 39.9473C41.5999 40.1263 41.5072 40.333 41.4453 40.5674C41.3835 40.7985 41.3525 41.0443 41.3525 41.3047Z" fill="#373434"/>
<path d="M47.7295 43.0625L49.0869 38.7168H49.6826L49.5654 39.5811L48.1836 44H47.6025L47.7295 43.0625ZM46.8164 38.7168L47.9736 43.1113L48.0566 44H47.4463L45.9131 38.7168H46.8164ZM50.9814 43.0771L52.085 38.7168H52.9834L51.4502 44H50.8447L50.9814 43.0771ZM49.8145 38.7168L51.1426 42.9893L51.2939 44H50.7178L49.2969 39.5713L49.1797 38.7168H49.8145Z" fill="#373434"/>
<path d="M54.8145 39.8447V44H53.9111V38.7168H54.7656L54.8145 39.8447ZM54.5996 41.1582L54.2236 41.1436C54.2269 40.7822 54.2806 40.4486 54.3848 40.1426C54.4889 39.8333 54.6354 39.5648 54.8242 39.3369C55.013 39.109 55.2376 38.9333 55.498 38.8096C55.7617 38.6826 56.0531 38.6191 56.3721 38.6191C56.6325 38.6191 56.8669 38.6549 57.0752 38.7266C57.2835 38.7949 57.4609 38.9056 57.6074 39.0586C57.7572 39.2116 57.8711 39.4102 57.9492 39.6543C58.0273 39.8952 58.0664 40.1898 58.0664 40.5381V44H57.1582V40.5283C57.1582 40.2516 57.1175 40.0303 57.0361 39.8643C56.9548 39.695 56.8359 39.5729 56.6797 39.498C56.5234 39.4199 56.3314 39.3809 56.1035 39.3809C55.8789 39.3809 55.6738 39.4281 55.4883 39.5225C55.306 39.6169 55.1481 39.7471 55.0146 39.9131C54.8844 40.0791 54.7819 40.2695 54.707 40.4844C54.6354 40.696 54.5996 40.9206 54.5996 41.1582Z" fill="#373434"/>
<path d="M62.9004 36.5V44H61.9922V36.5H62.9004Z" fill="#373434"/>
<path d="M64.1113 41.417V41.3047C64.1113 40.9238 64.1667 40.5706 64.2773 40.2451C64.388 39.9163 64.5475 39.6315 64.7559 39.3906C64.9642 39.1465 65.2165 38.9577 65.5127 38.8242C65.8089 38.6875 66.141 38.6191 66.5088 38.6191C66.8799 38.6191 67.2135 38.6875 67.5098 38.8242C67.8092 38.9577 68.0632 39.1465 68.2715 39.3906C68.4831 39.6315 68.6442 39.9163 68.7549 40.2451C68.8656 40.5706 68.9209 40.9238 68.9209 41.3047V41.417C68.9209 41.7979 68.8656 42.151 68.7549 42.4766C68.6442 42.8021 68.4831 43.0869 68.2715 43.3311C68.0632 43.5719 67.8109 43.7607 67.5146 43.8975C67.2217 44.0309 66.8896 44.0977 66.5186 44.0977C66.1475 44.0977 65.8138 44.0309 65.5176 43.8975C65.2214 43.7607 64.9674 43.5719 64.7559 43.3311C64.5475 43.0869 64.388 42.8021 64.2773 42.4766C64.1667 42.151 64.1113 41.7979 64.1113 41.417ZM65.0146 41.3047V41.417C65.0146 41.6807 65.0456 41.9297 65.1074 42.1641C65.1693 42.3952 65.262 42.6003 65.3857 42.7793C65.5127 42.9583 65.6706 43.0999 65.8594 43.2041C66.0482 43.305 66.2679 43.3555 66.5186 43.3555C66.766 43.3555 66.9824 43.305 67.168 43.2041C67.3568 43.0999 67.513 42.9583 67.6367 42.7793C67.7604 42.6003 67.8532 42.3952 67.915 42.1641C67.9801 41.9297 68.0127 41.6807 68.0127 41.417V41.3047C68.0127 41.0443 67.9801 40.7985 67.915 40.5674C67.8532 40.333 67.7588 40.1263 67.6318 39.9473C67.5081 39.765 67.3519 39.6217 67.1631 39.5176C66.9775 39.4134 66.7594 39.3613 66.5088 39.3613C66.2614 39.3613 66.0433 39.4134 65.8545 39.5176C65.6689 39.6217 65.5127 39.765 65.3857 39.9473C65.262 40.1263 65.1693 40.333 65.1074 40.5674C65.0456 40.7985 65.0146 41.0443 65.0146 41.3047Z" fill="#373434"/>
<path d="M73.1299 42.5986C73.1299 42.4684 73.1006 42.348 73.042 42.2373C72.9867 42.1234 72.8711 42.0208 72.6953 41.9297C72.5228 41.8353 72.2624 41.7539 71.9141 41.6855C71.6211 41.6237 71.3558 41.5505 71.1182 41.4658C70.8838 41.3812 70.6836 41.2786 70.5176 41.1582C70.3548 41.0378 70.2295 40.8962 70.1416 40.7334C70.0537 40.5706 70.0098 40.3802 70.0098 40.1621C70.0098 39.9538 70.0553 39.7568 70.1465 39.5713C70.2409 39.3857 70.3727 39.2214 70.542 39.0781C70.7145 38.9349 70.9212 38.8226 71.1621 38.7412C71.403 38.6598 71.6715 38.6191 71.9678 38.6191C72.391 38.6191 72.7523 38.694 73.0518 38.8438C73.3512 38.9935 73.5807 39.1937 73.7402 39.4443C73.8997 39.6917 73.9795 39.9668 73.9795 40.2695H73.0762C73.0762 40.123 73.0322 39.9814 72.9443 39.8447C72.8597 39.7048 72.7344 39.5892 72.5684 39.498C72.4056 39.4069 72.2054 39.3613 71.9678 39.3613C71.7171 39.3613 71.5137 39.4004 71.3574 39.4785C71.2044 39.5534 71.0921 39.6494 71.0205 39.7666C70.9521 39.8838 70.918 40.0075 70.918 40.1377C70.918 40.2354 70.9342 40.3232 70.9668 40.4014C71.0026 40.4762 71.0645 40.5462 71.1523 40.6113C71.2402 40.6732 71.3639 40.7318 71.5234 40.7871C71.6829 40.8424 71.8864 40.8978 72.1338 40.9531C72.5667 41.0508 72.9232 41.168 73.2031 41.3047C73.4831 41.4414 73.6914 41.609 73.8281 41.8076C73.9648 42.0062 74.0332 42.2471 74.0332 42.5303C74.0332 42.7614 73.9844 42.973 73.8867 43.165C73.7923 43.3571 73.654 43.5231 73.4717 43.6631C73.2926 43.7998 73.0778 43.9072 72.8271 43.9854C72.5798 44.0602 72.3014 44.0977 71.9922 44.0977C71.5267 44.0977 71.1328 44.0146 70.8105 43.8486C70.4883 43.6826 70.2441 43.4678 70.0781 43.2041C69.9121 42.9404 69.8291 42.6621 69.8291 42.3691H70.7373C70.7503 42.6165 70.8219 42.8135 70.9521 42.96C71.0824 43.1032 71.2419 43.2057 71.4307 43.2676C71.6195 43.3262 71.8066 43.3555 71.9922 43.3555C72.2396 43.3555 72.4463 43.3229 72.6123 43.2578C72.7816 43.1927 72.9102 43.1032 72.998 42.9893C73.0859 42.8753 73.1299 42.7451 73.1299 42.5986Z" fill="#373434"/>
<path d="M78.2959 42.5986C78.2959 42.4684 78.2666 42.348 78.208 42.2373C78.1527 42.1234 78.0371 42.0208 77.8613 41.9297C77.6888 41.8353 77.4284 41.7539 77.0801 41.6855C76.7871 41.6237 76.5218 41.5505 76.2842 41.4658C76.0498 41.3812 75.8496 41.2786 75.6836 41.1582C75.5208 41.0378 75.3955 40.8962 75.3076 40.7334C75.2197 40.5706 75.1758 40.3802 75.1758 40.1621C75.1758 39.9538 75.2214 39.7568 75.3125 39.5713C75.4069 39.3857 75.5387 39.2214 75.708 39.0781C75.8805 38.9349 76.0872 38.8226 76.3281 38.7412C76.569 38.6598 76.8376 38.6191 77.1338 38.6191C77.557 38.6191 77.9183 38.694 78.2178 38.8438C78.5173 38.9935 78.7467 39.1937 78.9062 39.4443C79.0658 39.6917 79.1455 39.9668 79.1455 40.2695H78.2422C78.2422 40.123 78.1982 39.9814 78.1104 39.8447C78.0257 39.7048 77.9004 39.5892 77.7344 39.498C77.5716 39.4069 77.3714 39.3613 77.1338 39.3613C76.8831 39.3613 76.6797 39.4004 76.5234 39.4785C76.3704 39.5534 76.2581 39.6494 76.1865 39.7666C76.1182 39.8838 76.084 40.0075 76.084 40.1377C76.084 40.2354 76.1003 40.3232 76.1328 40.4014C76.1686 40.4762 76.2305 40.5462 76.3184 40.6113C76.4062 40.6732 76.5299 40.7318 76.6895 40.7871C76.849 40.8424 77.0524 40.8978 77.2998 40.9531C77.7327 41.0508 78.0892 41.168 78.3691 41.3047C78.6491 41.4414 78.8574 41.609 78.9941 41.8076C79.1309 42.0062 79.1992 42.2471 79.1992 42.5303C79.1992 42.7614 79.1504 42.973 79.0527 43.165C78.9583 43.3571 78.82 43.5231 78.6377 43.6631C78.4587 43.7998 78.2438 43.9072 77.9932 43.9854C77.7458 44.0602 77.4674 44.0977 77.1582 44.0977C76.6927 44.0977 76.2988 44.0146 75.9766 43.8486C75.6543 43.6826 75.4102 43.4678 75.2441 43.2041C75.0781 42.9404 74.9951 42.6621 74.9951 42.3691H75.9033C75.9163 42.6165 75.988 42.8135 76.1182 42.96C76.2484 43.1032 76.4079 43.2057 76.5967 43.2676C76.7855 43.3262 76.9727 43.3555 77.1582 43.3555C77.4056 43.3555 77.6123 43.3229 77.7783 43.2578C77.9476 43.1927 78.0762 43.1032 78.1641 42.9893C78.252 42.8753 78.2959 42.7451 78.2959 42.5986Z" fill="#373434"/>
<path d="M41.7676 59.8906V67H40.8252V59.8906H41.7676ZM44.7461 63.0889V63.8604H41.5625V63.0889H44.7461ZM45.2295 59.8906V60.6621H41.5625V59.8906H45.2295Z" fill="#373434"/>
<path d="M46.9922 62.5469V67H46.0889V61.7168H46.9678L46.9922 62.5469ZM48.6426 61.6875L48.6377 62.5273C48.5628 62.5111 48.4912 62.5013 48.4229 62.498C48.3577 62.4915 48.2829 62.4883 48.1982 62.4883C47.9899 62.4883 47.806 62.5208 47.6465 62.5859C47.487 62.651 47.3519 62.7422 47.2412 62.8594C47.1305 62.9766 47.0426 63.1165 46.9775 63.2793C46.9157 63.4388 46.875 63.6146 46.8555 63.8066L46.6016 63.9531C46.6016 63.6341 46.6325 63.3346 46.6943 63.0547C46.7594 62.7747 46.8587 62.5273 46.9922 62.3125C47.1257 62.0944 47.2949 61.9251 47.5 61.8047C47.7083 61.681 47.9557 61.6191 48.2422 61.6191C48.3073 61.6191 48.3822 61.6273 48.4668 61.6436C48.5514 61.6566 48.61 61.6712 48.6426 61.6875Z" fill="#373434"/>
<path d="M52.3975 66.0967V63.377C52.3975 63.1686 52.3551 62.988 52.2705 62.835C52.1891 62.6787 52.0654 62.5583 51.8994 62.4736C51.7334 62.389 51.5283 62.3467 51.2842 62.3467C51.0563 62.3467 50.8561 62.3857 50.6836 62.4639C50.5143 62.542 50.3809 62.6445 50.2832 62.7715C50.1888 62.8984 50.1416 63.0352 50.1416 63.1816H49.2383C49.2383 62.9928 49.2871 62.8057 49.3848 62.6201C49.4824 62.4346 49.6224 62.2669 49.8047 62.1172C49.9902 61.9642 50.2116 61.8438 50.4688 61.7559C50.7292 61.6647 51.0189 61.6191 51.3379 61.6191C51.722 61.6191 52.0605 61.6842 52.3535 61.8145C52.6497 61.9447 52.8809 62.1416 53.0469 62.4053C53.2161 62.6657 53.3008 62.9928 53.3008 63.3867V65.8477C53.3008 66.0234 53.3154 66.2106 53.3447 66.4092C53.3773 66.6077 53.4245 66.7786 53.4863 66.9219V67H52.5439C52.4984 66.8958 52.4626 66.7575 52.4365 66.585C52.4105 66.4092 52.3975 66.2464 52.3975 66.0967ZM52.5537 63.7969L52.5635 64.4316H51.6504C51.3932 64.4316 51.1637 64.4528 50.9619 64.4951C50.7601 64.5342 50.5908 64.5944 50.4541 64.6758C50.3174 64.7572 50.2132 64.8597 50.1416 64.9834C50.07 65.1038 50.0342 65.2454 50.0342 65.4082C50.0342 65.5742 50.0716 65.7256 50.1465 65.8623C50.2214 65.999 50.3337 66.1081 50.4834 66.1895C50.6364 66.2676 50.8236 66.3066 51.0449 66.3066C51.3216 66.3066 51.5658 66.248 51.7773 66.1309C51.9889 66.0137 52.1566 65.8704 52.2803 65.7012C52.4072 65.5319 52.4756 65.3675 52.4854 65.208L52.8711 65.6426C52.8483 65.7793 52.7865 65.9307 52.6855 66.0967C52.5846 66.2627 52.4495 66.4222 52.2803 66.5752C52.1143 66.7249 51.9157 66.8503 51.6846 66.9512C51.4567 67.0488 51.1995 67.0977 50.9131 67.0977C50.555 67.0977 50.2409 67.0277 49.9707 66.8877C49.7038 66.7477 49.4954 66.5605 49.3457 66.3262C49.1992 66.0885 49.126 65.8232 49.126 65.5303C49.126 65.2471 49.1813 64.998 49.292 64.7832C49.4027 64.5651 49.5622 64.3844 49.7705 64.2412C49.9788 64.0947 50.2295 63.984 50.5225 63.9092C50.8154 63.8343 51.1426 63.7969 51.5039 63.7969H52.5537Z" fill="#373434"/>
<path d="M55.625 62.8447V67H54.7217V61.7168H55.5762L55.625 62.8447ZM55.4102 64.1582L55.0342 64.1436C55.0374 63.7822 55.0911 63.4486 55.1953 63.1426C55.2995 62.8333 55.446 62.5648 55.6348 62.3369C55.8236 62.109 56.0482 61.9333 56.3086 61.8096C56.5723 61.6826 56.8636 61.6191 57.1826 61.6191C57.443 61.6191 57.6774 61.6549 57.8857 61.7266C58.0941 61.7949 58.2715 61.9056 58.418 62.0586C58.5677 62.2116 58.6816 62.4102 58.7598 62.6543C58.8379 62.8952 58.877 63.1898 58.877 63.5381V67H57.9688V63.5283C57.9688 63.2516 57.9281 63.0303 57.8467 62.8643C57.7653 62.695 57.6465 62.5729 57.4902 62.498C57.334 62.4199 57.1419 62.3809 56.9141 62.3809C56.6895 62.3809 56.4844 62.4281 56.2988 62.5225C56.1165 62.6169 55.9587 62.7471 55.8252 62.9131C55.695 63.0791 55.5924 63.2695 55.5176 63.4844C55.446 63.696 55.4102 63.9206 55.4102 64.1582Z" fill="#373434"/>
<path d="M62.3633 66.3555C62.5781 66.3555 62.7767 66.3115 62.959 66.2236C63.1413 66.1357 63.291 66.0153 63.4082 65.8623C63.5254 65.7061 63.5921 65.5286 63.6084 65.3301H64.4678C64.4515 65.6426 64.3457 65.9339 64.1504 66.2041C63.9583 66.471 63.7061 66.6875 63.3936 66.8535C63.0811 67.0163 62.7376 67.0977 62.3633 67.0977C61.9661 67.0977 61.6195 67.0277 61.3232 66.8877C61.0303 66.7477 60.7861 66.5557 60.5908 66.3115C60.3988 66.0674 60.2539 65.7874 60.1562 65.4717C60.0618 65.1527 60.0146 64.8158 60.0146 64.4609V64.2559C60.0146 63.901 60.0618 63.5658 60.1562 63.25C60.2539 62.931 60.3988 62.6494 60.5908 62.4053C60.7861 62.1611 61.0303 61.9691 61.3232 61.8291C61.6195 61.6891 61.9661 61.6191 62.3633 61.6191C62.7767 61.6191 63.138 61.7038 63.4473 61.873C63.7565 62.0391 63.999 62.2669 64.1748 62.5566C64.3538 62.8431 64.4515 63.1686 64.4678 63.5332H63.6084C63.5921 63.3151 63.5303 63.1182 63.4229 62.9424C63.3187 62.7666 63.1755 62.6266 62.9932 62.5225C62.8141 62.415 62.6042 62.3613 62.3633 62.3613C62.0866 62.3613 61.8538 62.4167 61.665 62.5273C61.4795 62.6348 61.3314 62.7812 61.2207 62.9668C61.1133 63.1491 61.0352 63.3525 60.9863 63.5771C60.9408 63.7985 60.918 64.0247 60.918 64.2559V64.4609C60.918 64.6921 60.9408 64.9199 60.9863 65.1445C61.0319 65.3691 61.1084 65.5726 61.2158 65.7549C61.3265 65.9372 61.4746 66.0837 61.6602 66.1943C61.849 66.3018 62.0833 66.3555 62.3633 66.3555Z" fill="#373434"/>
<path d="M66.3867 59.5V67H65.4834V59.5H66.3867ZM66.1719 64.1582L65.7959 64.1436C65.7992 63.7822 65.8529 63.4486 65.957 63.1426C66.0612 62.8333 66.2077 62.5648 66.3965 62.3369C66.5853 62.109 66.8099 61.9333 67.0703 61.8096C67.334 61.6826 67.6253 61.6191 67.9443 61.6191C68.2048 61.6191 68.4391 61.6549 68.6475 61.7266C68.8558 61.7949 69.0332 61.9056 69.1797 62.0586C69.3294 62.2116 69.4434 62.4102 69.5215 62.6543C69.5996 62.8952 69.6387 63.1898 69.6387 63.5381V67H68.7305V63.5283C68.7305 63.2516 68.6898 63.0303 68.6084 62.8643C68.527 62.695 68.4082 62.5729 68.252 62.498C68.0957 62.4199 67.9036 62.3809 67.6758 62.3809C67.4512 62.3809 67.2461 62.4281 67.0605 62.5225C66.8783 62.6169 66.7204 62.7471 66.5869 62.9131C66.4567 63.0791 66.3542 63.2695 66.2793 63.4844C66.2077 63.696 66.1719 63.9206 66.1719 64.1582Z" fill="#373434"/>
<path d="M71.9727 61.7168V67H71.0645V61.7168H71.9727ZM70.9961 60.3154C70.9961 60.1689 71.04 60.0452 71.1279 59.9443C71.2191 59.8434 71.3525 59.793 71.5283 59.793C71.7008 59.793 71.8327 59.8434 71.9238 59.9443C72.0182 60.0452 72.0654 60.1689 72.0654 60.3154C72.0654 60.4554 72.0182 60.5758 71.9238 60.6768C71.8327 60.7744 71.7008 60.8232 71.5283 60.8232C71.3525 60.8232 71.2191 60.7744 71.1279 60.6768C71.04 60.5758 70.9961 60.4554 70.9961 60.3154Z" fill="#373434"/>
<path d="M76.499 65.5986C76.499 65.4684 76.4697 65.348 76.4111 65.2373C76.3558 65.1234 76.2402 65.0208 76.0645 64.9297C75.8919 64.8353 75.6315 64.7539 75.2832 64.6855C74.9902 64.6237 74.7249 64.5505 74.4873 64.4658C74.2529 64.3812 74.0527 64.2786 73.8867 64.1582C73.724 64.0378 73.5986 63.8962 73.5107 63.7334C73.4229 63.5706 73.3789 63.3802 73.3789 63.1621C73.3789 62.9538 73.4245 62.7568 73.5156 62.5713C73.61 62.3857 73.7419 62.2214 73.9111 62.0781C74.0837 61.9349 74.2904 61.8226 74.5312 61.7412C74.7721 61.6598 75.0407 61.6191 75.3369 61.6191C75.7601 61.6191 76.1214 61.694 76.4209 61.8438C76.7204 61.9935 76.9499 62.1937 77.1094 62.4443C77.2689 62.6917 77.3486 62.9668 77.3486 63.2695H76.4453C76.4453 63.123 76.4014 62.9814 76.3135 62.8447C76.2288 62.7048 76.1035 62.5892 75.9375 62.498C75.7747 62.4069 75.5745 62.3613 75.3369 62.3613C75.0863 62.3613 74.8828 62.4004 74.7266 62.4785C74.5736 62.5534 74.4613 62.6494 74.3896 62.7666C74.3213 62.8838 74.2871 63.0075 74.2871 63.1377C74.2871 63.2354 74.3034 63.3232 74.3359 63.4014C74.3717 63.4762 74.4336 63.5462 74.5215 63.6113C74.6094 63.6732 74.7331 63.7318 74.8926 63.7871C75.0521 63.8424 75.2555 63.8978 75.5029 63.9531C75.9359 64.0508 76.2923 64.168 76.5723 64.3047C76.8522 64.4414 77.0605 64.609 77.1973 64.8076C77.334 65.0062 77.4023 65.2471 77.4023 65.5303C77.4023 65.7614 77.3535 65.973 77.2559 66.165C77.1615 66.3571 77.0231 66.5231 76.8408 66.6631C76.6618 66.7998 76.4469 66.9072 76.1963 66.9854C75.9489 67.0602 75.6706 67.0977 75.3613 67.0977C74.8958 67.0977 74.502 67.0146 74.1797 66.8486C73.8574 66.6826 73.6133 66.4678 73.4473 66.2041C73.2812 65.9404 73.1982 65.6621 73.1982 65.3691H74.1064C74.1195 65.6165 74.1911 65.8135 74.3213 65.96C74.4515 66.1032 74.611 66.2057 74.7998 66.2676C74.9886 66.3262 75.1758 66.3555 75.3613 66.3555C75.6087 66.3555 75.8154 66.3229 75.9814 66.2578C76.1507 66.1927 76.2793 66.1032 76.3672 65.9893C76.4551 65.8753 76.499 65.7451 76.499 65.5986Z" fill="#373434"/>
<path d="M80.7812 67.0977C80.4134 67.0977 80.0798 67.0358 79.7803 66.9121C79.484 66.7852 79.2285 66.6077 79.0137 66.3799C78.8021 66.152 78.6393 65.8818 78.5254 65.5693C78.4115 65.2568 78.3545 64.915 78.3545 64.5439V64.3389C78.3545 63.9092 78.418 63.5267 78.5449 63.1914C78.6719 62.8529 78.8444 62.5664 79.0625 62.332C79.2806 62.0977 79.528 61.9202 79.8047 61.7998C80.0814 61.6794 80.3678 61.6191 80.6641 61.6191C81.0417 61.6191 81.3672 61.6842 81.6406 61.8145C81.9173 61.9447 82.1436 62.127 82.3193 62.3613C82.4951 62.5924 82.6253 62.8659 82.71 63.1816C82.7946 63.4941 82.8369 63.8359 82.8369 64.207V64.6123H78.8916V63.875H81.9336V63.8066C81.9206 63.5723 81.8717 63.3444 81.7871 63.123C81.7057 62.9017 81.5755 62.7194 81.3965 62.5762C81.2174 62.4329 80.9733 62.3613 80.6641 62.3613C80.459 62.3613 80.2702 62.4053 80.0977 62.4932C79.9251 62.5778 79.777 62.7048 79.6533 62.874C79.5296 63.0433 79.4336 63.25 79.3652 63.4941C79.2969 63.7383 79.2627 64.0199 79.2627 64.3389V64.5439C79.2627 64.7946 79.2969 65.0306 79.3652 65.252C79.4368 65.4701 79.5394 65.6621 79.6729 65.8281C79.8096 65.9941 79.974 66.1243 80.166 66.2188C80.3613 66.3132 80.5827 66.3604 80.8301 66.3604C81.1491 66.3604 81.4193 66.2952 81.6406 66.165C81.862 66.0348 82.0557 65.8607 82.2217 65.6426L82.7686 66.0771C82.6546 66.2497 82.5098 66.4141 82.334 66.5703C82.1582 66.7266 81.9417 66.8535 81.6846 66.9512C81.4307 67.0488 81.1296 67.0977 80.7812 67.0977Z" fill="#373434"/>
<path d="M87.2754 62.7324V69.0312H86.3672V61.7168H87.1973L87.2754 62.7324ZM90.835 64.3145V64.417C90.835 64.8011 90.7894 65.1576 90.6982 65.4863C90.6071 65.8118 90.4736 66.0951 90.2979 66.3359C90.1253 66.5768 89.9121 66.764 89.6582 66.8975C89.4043 67.0309 89.113 67.0977 88.7842 67.0977C88.4489 67.0977 88.1527 67.0423 87.8955 66.9316C87.6383 66.821 87.4202 66.6598 87.2412 66.4482C87.0622 66.2367 86.9189 65.9827 86.8115 65.6865C86.7074 65.3903 86.6357 65.0566 86.5967 64.6855V64.1387C86.6357 63.748 86.709 63.3981 86.8164 63.0889C86.9238 62.7796 87.0654 62.516 87.2412 62.2979C87.4202 62.0765 87.6367 61.9089 87.8906 61.7949C88.1445 61.6777 88.4375 61.6191 88.7695 61.6191C89.1016 61.6191 89.3962 61.6842 89.6533 61.8145C89.9105 61.9414 90.127 62.1237 90.3027 62.3613C90.4785 62.599 90.6104 62.8838 90.6982 63.2158C90.7894 63.5446 90.835 63.9108 90.835 64.3145ZM89.9268 64.417V64.3145C89.9268 64.0508 89.8991 63.8034 89.8438 63.5723C89.7884 63.3379 89.7021 63.1328 89.585 62.957C89.471 62.778 89.3245 62.638 89.1455 62.5371C88.9665 62.4329 88.7533 62.3809 88.5059 62.3809C88.278 62.3809 88.0794 62.4199 87.9102 62.498C87.7441 62.5762 87.6025 62.682 87.4854 62.8154C87.3682 62.9456 87.2721 63.0954 87.1973 63.2646C87.1257 63.4307 87.0719 63.6032 87.0361 63.7822V65.0469C87.1012 65.2747 87.1924 65.4896 87.3096 65.6914C87.4268 65.89 87.583 66.0511 87.7783 66.1748C87.9736 66.2952 88.2194 66.3555 88.5156 66.3555C88.7598 66.3555 88.9697 66.305 89.1455 66.2041C89.3245 66.0999 89.471 65.9583 89.585 65.7793C89.7021 65.6003 89.7884 65.3952 89.8438 65.1641C89.8991 64.9297 89.9268 64.6807 89.9268 64.417Z" fill="#373434"/>
<path d="M92.8906 62.5469V67H91.9873V61.7168H92.8662L92.8906 62.5469ZM94.541 61.6875L94.5361 62.5273C94.4613 62.5111 94.3896 62.5013 94.3213 62.498C94.2562 62.4915 94.1813 62.4883 94.0967 62.4883C93.8883 62.4883 93.7044 62.5208 93.5449 62.5859C93.3854 62.651 93.2503 62.7422 93.1396 62.8594C93.029 62.9766 92.9411 63.1165 92.876 63.2793C92.8141 63.4388 92.7734 63.6146 92.7539 63.8066L92.5 63.9531C92.5 63.6341 92.5309 63.3346 92.5928 63.0547C92.6579 62.7747 92.7572 62.5273 92.8906 62.3125C93.0241 62.0944 93.1934 61.9251 93.3984 61.8047C93.6068 61.681 93.8542 61.6191 94.1406 61.6191C94.2057 61.6191 94.2806 61.6273 94.3652 61.6436C94.4499 61.6566 94.5085 61.6712 94.541 61.6875Z" fill="#373434"/>
<path d="M95.0391 64.417V64.3047C95.0391 63.9238 95.0944 63.5706 95.2051 63.2451C95.3158 62.9163 95.4753 62.6315 95.6836 62.3906C95.8919 62.1465 96.1442 61.9577 96.4404 61.8242C96.7367 61.6875 97.0687 61.6191 97.4365 61.6191C97.8076 61.6191 98.1413 61.6875 98.4375 61.8242C98.737 61.9577 98.9909 62.1465 99.1992 62.3906C99.4108 62.6315 99.5719 62.9163 99.6826 63.2451C99.7933 63.5706 99.8486 63.9238 99.8486 64.3047V64.417C99.8486 64.7979 99.7933 65.151 99.6826 65.4766C99.5719 65.8021 99.4108 66.0869 99.1992 66.3311C98.9909 66.5719 98.7386 66.7607 98.4424 66.8975C98.1494 67.0309 97.8174 67.0977 97.4463 67.0977C97.0752 67.0977 96.7415 67.0309 96.4453 66.8975C96.1491 66.7607 95.8952 66.5719 95.6836 66.3311C95.4753 66.0869 95.3158 65.8021 95.2051 65.4766C95.0944 65.151 95.0391 64.7979 95.0391 64.417ZM95.9424 64.3047V64.417C95.9424 64.6807 95.9733 64.9297 96.0352 65.1641C96.097 65.3952 96.1898 65.6003 96.3135 65.7793C96.4404 65.9583 96.5983 66.0999 96.7871 66.2041C96.9759 66.305 97.1956 66.3555 97.4463 66.3555C97.6937 66.3555 97.9102 66.305 98.0957 66.2041C98.2845 66.0999 98.4408 65.9583 98.5645 65.7793C98.6882 65.6003 98.7809 65.3952 98.8428 65.1641C98.9079 64.9297 98.9404 64.6807 98.9404 64.417V64.3047C98.9404 64.0443 98.9079 63.7985 98.8428 63.5674C98.7809 63.333 98.6865 63.1263 98.5596 62.9473C98.4359 62.765 98.2796 62.6217 98.0908 62.5176C97.9053 62.4134 97.6872 62.3613 97.4365 62.3613C97.1891 62.3613 96.971 62.4134 96.7822 62.5176C96.5967 62.6217 96.4404 62.765 96.3135 62.9473C96.1898 63.1263 96.097 63.333 96.0352 63.5674C95.9733 63.7985 95.9424 64.0443 95.9424 64.3047Z" fill="#373434"/>
<path d="M102.188 67H101.284V61.2578C101.284 60.8574 101.362 60.5189 101.519 60.2422C101.675 59.9655 101.898 59.7555 102.188 59.6123C102.477 59.4691 102.821 59.3975 103.218 59.3975C103.452 59.3975 103.682 59.4268 103.906 59.4854C104.131 59.5407 104.362 59.6107 104.6 59.6953L104.448 60.457C104.299 60.3984 104.124 60.3431 103.926 60.291C103.73 60.2357 103.516 60.208 103.281 60.208C102.894 60.208 102.614 60.2959 102.441 60.4717C102.272 60.6442 102.188 60.9062 102.188 61.2578V67ZM103.267 61.7168V62.4102H100.449V61.7168H103.267ZM105.044 61.7168V67H104.141V61.7168H105.044Z" fill="#373434"/>
<path d="M108.74 61.7168V62.4102H105.884V61.7168H108.74ZM106.851 60.4326H107.754V65.6914C107.754 65.8704 107.782 66.0055 107.837 66.0967C107.892 66.1878 107.964 66.248 108.052 66.2773C108.14 66.3066 108.234 66.3213 108.335 66.3213C108.41 66.3213 108.488 66.3148 108.569 66.3018C108.654 66.2855 108.717 66.2725 108.76 66.2627L108.765 67C108.693 67.0228 108.599 67.0439 108.481 67.0635C108.368 67.0863 108.229 67.0977 108.066 67.0977C107.845 67.0977 107.642 67.0537 107.456 66.9658C107.271 66.8779 107.122 66.7314 107.012 66.5264C106.904 66.318 106.851 66.0381 106.851 65.6865V60.4326Z" fill="#373434"/>
<path d="M112.915 66.0967V63.377C112.915 63.1686 112.873 62.988 112.788 62.835C112.707 62.6787 112.583 62.5583 112.417 62.4736C112.251 62.389 112.046 62.3467 111.802 62.3467C111.574 62.3467 111.374 62.3857 111.201 62.4639C111.032 62.542 110.898 62.6445 110.801 62.7715C110.706 62.8984 110.659 63.0352 110.659 63.1816H109.756C109.756 62.9928 109.805 62.8057 109.902 62.6201C110 62.4346 110.14 62.2669 110.322 62.1172C110.508 61.9642 110.729 61.8438 110.986 61.7559C111.247 61.6647 111.536 61.6191 111.855 61.6191C112.24 61.6191 112.578 61.6842 112.871 61.8145C113.167 61.9447 113.398 62.1416 113.564 62.4053C113.734 62.6657 113.818 62.9928 113.818 63.3867V65.8477C113.818 66.0234 113.833 66.2106 113.862 66.4092C113.895 66.6077 113.942 66.7786 114.004 66.9219V67H113.062C113.016 66.8958 112.98 66.7575 112.954 66.585C112.928 66.4092 112.915 66.2464 112.915 66.0967ZM113.071 63.7969L113.081 64.4316H112.168C111.911 64.4316 111.681 64.4528 111.479 64.4951C111.278 64.5342 111.108 64.5944 110.972 64.6758C110.835 64.7572 110.731 64.8597 110.659 64.9834C110.588 65.1038 110.552 65.2454 110.552 65.4082C110.552 65.5742 110.589 65.7256 110.664 65.8623C110.739 65.999 110.851 66.1081 111.001 66.1895C111.154 66.2676 111.341 66.3066 111.562 66.3066C111.839 66.3066 112.083 66.248 112.295 66.1309C112.507 66.0137 112.674 65.8704 112.798 65.7012C112.925 65.5319 112.993 65.3675 113.003 65.208L113.389 65.6426C113.366 65.7793 113.304 65.9307 113.203 66.0967C113.102 66.2627 112.967 66.4222 112.798 66.5752C112.632 66.7249 112.433 66.8503 112.202 66.9512C111.974 67.0488 111.717 67.0977 111.431 67.0977C111.073 67.0977 110.758 67.0277 110.488 66.8877C110.221 66.7477 110.013 66.5605 109.863 66.3262C109.717 66.0885 109.644 65.8232 109.644 65.5303C109.644 65.2471 109.699 64.998 109.81 64.7832C109.92 64.5651 110.08 64.3844 110.288 64.2412C110.496 64.0947 110.747 63.984 111.04 63.9092C111.333 63.8343 111.66 63.7969 112.021 63.7969H113.071Z" fill="#373434"/>
<path d="M115.234 59.5H116.143V65.9746L116.064 67H115.234V59.5ZM119.712 64.3145V64.417C119.712 64.8011 119.666 65.1576 119.575 65.4863C119.484 65.8118 119.351 66.0951 119.175 66.3359C118.999 66.5768 118.784 66.764 118.53 66.8975C118.276 67.0309 117.985 67.0977 117.656 67.0977C117.321 67.0977 117.026 67.0407 116.772 66.9268C116.522 66.8096 116.31 66.6419 116.138 66.4238C115.965 66.2057 115.827 65.9421 115.723 65.6328C115.622 65.3236 115.552 64.9753 115.513 64.5879V64.1387C115.552 63.748 115.622 63.3981 115.723 63.0889C115.827 62.7796 115.965 62.516 116.138 62.2979C116.31 62.0765 116.522 61.9089 116.772 61.7949C117.023 61.6777 117.314 61.6191 117.646 61.6191C117.979 61.6191 118.273 61.6842 118.53 61.8145C118.787 61.9414 119.002 62.1237 119.175 62.3613C119.351 62.599 119.484 62.8838 119.575 63.2158C119.666 63.5446 119.712 63.9108 119.712 64.3145ZM118.804 64.417V64.3145C118.804 64.0508 118.779 63.8034 118.73 63.5723C118.682 63.3379 118.604 63.1328 118.496 62.957C118.389 62.778 118.247 62.638 118.071 62.5371C117.896 62.4329 117.679 62.3809 117.422 62.3809C117.194 62.3809 116.995 62.4199 116.826 62.498C116.66 62.5762 116.519 62.682 116.401 62.8154C116.284 62.9456 116.188 63.0954 116.113 63.2646C116.042 63.4307 115.988 63.6032 115.952 63.7822V64.959C116.004 65.1868 116.089 65.4066 116.206 65.6182C116.326 65.8265 116.486 65.9974 116.685 66.1309C116.886 66.2643 117.135 66.3311 117.432 66.3311C117.676 66.3311 117.884 66.2822 118.057 66.1846C118.232 66.0837 118.374 65.9453 118.481 65.7695C118.592 65.5938 118.674 65.3903 118.726 65.1592C118.778 64.9281 118.804 64.6807 118.804 64.417Z" fill="#373434"/>
<path d="M121.836 59.5V67H120.928V59.5H121.836Z" fill="#373434"/>
<path d="M125.479 67.0977C125.111 67.0977 124.777 67.0358 124.478 66.9121C124.181 66.7852 123.926 66.6077 123.711 66.3799C123.499 66.152 123.337 65.8818 123.223 65.5693C123.109 65.2568 123.052 64.915 123.052 64.5439V64.3389C123.052 63.9092 123.115 63.5267 123.242 63.1914C123.369 62.8529 123.542 62.5664 123.76 62.332C123.978 62.0977 124.225 61.9202 124.502 61.7998C124.779 61.6794 125.065 61.6191 125.361 61.6191C125.739 61.6191 126.064 61.6842 126.338 61.8145C126.615 61.9447 126.841 62.127 127.017 62.3613C127.192 62.5924 127.323 62.8659 127.407 63.1816C127.492 63.4941 127.534 63.8359 127.534 64.207V64.6123H123.589V63.875H126.631V63.8066C126.618 63.5723 126.569 63.3444 126.484 63.123C126.403 62.9017 126.273 62.7194 126.094 62.5762C125.915 62.4329 125.671 62.3613 125.361 62.3613C125.156 62.3613 124.967 62.4053 124.795 62.4932C124.622 62.5778 124.474 62.7048 124.351 62.874C124.227 63.0433 124.131 63.25 124.062 63.4941C123.994 63.7383 123.96 64.0199 123.96 64.3389V64.5439C123.96 64.7946 123.994 65.0306 124.062 65.252C124.134 65.4701 124.237 65.6621 124.37 65.8281C124.507 65.9941 124.671 66.1243 124.863 66.2188C125.059 66.3132 125.28 66.3604 125.527 66.3604C125.846 66.3604 126.117 66.2952 126.338 66.165C126.559 66.0348 126.753 65.8607 126.919 65.6426L127.466 66.0771C127.352 66.2497 127.207 66.4141 127.031 66.5703C126.855 66.7266 126.639 66.8535 126.382 66.9512C126.128 67.0488 125.827 67.0977 125.479 67.0977Z" fill="#373434"/>
<path d="M41.7676 81.8906V89H40.8252V81.8906H41.7676ZM44.7461 85.0889V85.8604H41.5625V85.0889H44.7461ZM45.2295 81.8906V82.6621H41.5625V81.8906H45.2295Z" fill="#373434"/>
<path d="M46.9922 84.5469V89H46.0889V83.7168H46.9678L46.9922 84.5469ZM48.6426 83.6875L48.6377 84.5273C48.5628 84.5111 48.4912 84.5013 48.4229 84.498C48.3577 84.4915 48.2829 84.4883 48.1982 84.4883C47.9899 84.4883 47.806 84.5208 47.6465 84.5859C47.487 84.651 47.3519 84.7422 47.2412 84.8594C47.1305 84.9766 47.0426 85.1165 46.9775 85.2793C46.9157 85.4388 46.875 85.6146 46.8555 85.8066L46.6016 85.9531C46.6016 85.6341 46.6325 85.3346 46.6943 85.0547C46.7594 84.7747 46.8587 84.5273 46.9922 84.3125C47.1257 84.0944 47.2949 83.9251 47.5 83.8047C47.7083 83.681 47.9557 83.6191 48.2422 83.6191C48.3073 83.6191 48.3822 83.6273 48.4668 83.6436C48.5514 83.6566 48.61 83.6712 48.6426 83.6875Z" fill="#373434"/>
<path d="M52.3975 88.0967V85.377C52.3975 85.1686 52.3551 84.988 52.2705 84.835C52.1891 84.6787 52.0654 84.5583 51.8994 84.4736C51.7334 84.389 51.5283 84.3467 51.2842 84.3467C51.0563 84.3467 50.8561 84.3857 50.6836 84.4639C50.5143 84.542 50.3809 84.6445 50.2832 84.7715C50.1888 84.8984 50.1416 85.0352 50.1416 85.1816H49.2383C49.2383 84.9928 49.2871 84.8057 49.3848 84.6201C49.4824 84.4346 49.6224 84.2669 49.8047 84.1172C49.9902 83.9642 50.2116 83.8438 50.4688 83.7559C50.7292 83.6647 51.0189 83.6191 51.3379 83.6191C51.722 83.6191 52.0605 83.6842 52.3535 83.8145C52.6497 83.9447 52.8809 84.1416 53.0469 84.4053C53.2161 84.6657 53.3008 84.9928 53.3008 85.3867V87.8477C53.3008 88.0234 53.3154 88.2106 53.3447 88.4092C53.3773 88.6077 53.4245 88.7786 53.4863 88.9219V89H52.5439C52.4984 88.8958 52.4626 88.7575 52.4365 88.585C52.4105 88.4092 52.3975 88.2464 52.3975 88.0967ZM52.5537 85.7969L52.5635 86.4316H51.6504C51.3932 86.4316 51.1637 86.4528 50.9619 86.4951C50.7601 86.5342 50.5908 86.5944 50.4541 86.6758C50.3174 86.7572 50.2132 86.8597 50.1416 86.9834C50.07 87.1038 50.0342 87.2454 50.0342 87.4082C50.0342 87.5742 50.0716 87.7256 50.1465 87.8623C50.2214 87.999 50.3337 88.1081 50.4834 88.1895C50.6364 88.2676 50.8236 88.3066 51.0449 88.3066C51.3216 88.3066 51.5658 88.248 51.7773 88.1309C51.9889 88.0137 52.1566 87.8704 52.2803 87.7012C52.4072 87.5319 52.4756 87.3675 52.4854 87.208L52.8711 87.6426C52.8483 87.7793 52.7865 87.9307 52.6855 88.0967C52.5846 88.2627 52.4495 88.4222 52.2803 88.5752C52.1143 88.7249 51.9157 88.8503 51.6846 88.9512C51.4567 89.0488 51.1995 89.0977 50.9131 89.0977C50.555 89.0977 50.2409 89.0277 49.9707 88.8877C49.7038 88.7477 49.4954 88.5605 49.3457 88.3262C49.1992 88.0885 49.126 87.8232 49.126 87.5303C49.126 87.2471 49.1813 86.998 49.292 86.7832C49.4027 86.5651 49.5622 86.3844 49.7705 86.2412C49.9788 86.0947 50.2295 85.984 50.5225 85.9092C50.8154 85.8343 51.1426 85.7969 51.5039 85.7969H52.5537Z" fill="#373434"/>
<path d="M55.625 84.8447V89H54.7217V83.7168H55.5762L55.625 84.8447ZM55.4102 86.1582L55.0342 86.1436C55.0374 85.7822 55.0911 85.4486 55.1953 85.1426C55.2995 84.8333 55.446 84.5648 55.6348 84.3369C55.8236 84.109 56.0482 83.9333 56.3086 83.8096C56.5723 83.6826 56.8636 83.6191 57.1826 83.6191C57.443 83.6191 57.6774 83.6549 57.8857 83.7266C58.0941 83.7949 58.2715 83.9056 58.418 84.0586C58.5677 84.2116 58.6816 84.4102 58.7598 84.6543C58.8379 84.8952 58.877 85.1898 58.877 85.5381V89H57.9688V85.5283C57.9688 85.2516 57.9281 85.0303 57.8467 84.8643C57.7653 84.695 57.6465 84.5729 57.4902 84.498C57.334 84.4199 57.1419 84.3809 56.9141 84.3809C56.6895 84.3809 56.4844 84.4281 56.2988 84.5225C56.1165 84.6169 55.9587 84.7471 55.8252 84.9131C55.695 85.0791 55.5924 85.2695 55.5176 85.4844C55.446 85.696 55.4102 85.9206 55.4102 86.1582Z" fill="#373434"/>
<path d="M62.3633 88.3555C62.5781 88.3555 62.7767 88.3115 62.959 88.2236C63.1413 88.1357 63.291 88.0153 63.4082 87.8623C63.5254 87.7061 63.5921 87.5286 63.6084 87.3301H64.4678C64.4515 87.6426 64.3457 87.9339 64.1504 88.2041C63.9583 88.471 63.7061 88.6875 63.3936 88.8535C63.0811 89.0163 62.7376 89.0977 62.3633 89.0977C61.9661 89.0977 61.6195 89.0277 61.3232 88.8877C61.0303 88.7477 60.7861 88.5557 60.5908 88.3115C60.3988 88.0674 60.2539 87.7874 60.1562 87.4717C60.0618 87.1527 60.0146 86.8158 60.0146 86.4609V86.2559C60.0146 85.901 60.0618 85.5658 60.1562 85.25C60.2539 84.931 60.3988 84.6494 60.5908 84.4053C60.7861 84.1611 61.0303 83.9691 61.3232 83.8291C61.6195 83.6891 61.9661 83.6191 62.3633 83.6191C62.7767 83.6191 63.138 83.7038 63.4473 83.873C63.7565 84.0391 63.999 84.2669 64.1748 84.5566C64.3538 84.8431 64.4515 85.1686 64.4678 85.5332H63.6084C63.5921 85.3151 63.5303 85.1182 63.4229 84.9424C63.3187 84.7666 63.1755 84.6266 62.9932 84.5225C62.8141 84.415 62.6042 84.3613 62.3633 84.3613C62.0866 84.3613 61.8538 84.4167 61.665 84.5273C61.4795 84.6348 61.3314 84.7812 61.2207 84.9668C61.1133 85.1491 61.0352 85.3525 60.9863 85.5771C60.9408 85.7985 60.918 86.0247 60.918 86.2559V86.4609C60.918 86.6921 60.9408 86.9199 60.9863 87.1445C61.0319 87.3691 61.1084 87.5726 61.2158 87.7549C61.3265 87.9372 61.4746 88.0837 61.6602 88.1943C61.849 88.3018 62.0833 88.3555 62.3633 88.3555Z" fill="#373434"/>
<path d="M66.3867 81.5V89H65.4834V81.5H66.3867ZM66.1719 86.1582L65.7959 86.1436C65.7992 85.7822 65.8529 85.4486 65.957 85.1426C66.0612 84.8333 66.2077 84.5648 66.3965 84.3369C66.5853 84.109 66.8099 83.9333 67.0703 83.8096C67.334 83.6826 67.6253 83.6191 67.9443 83.6191C68.2048 83.6191 68.4391 83.6549 68.6475 83.7266C68.8558 83.7949 69.0332 83.9056 69.1797 84.0586C69.3294 84.2116 69.4434 84.4102 69.5215 84.6543C69.5996 84.8952 69.6387 85.1898 69.6387 85.5381V89H68.7305V85.5283C68.7305 85.2516 68.6898 85.0303 68.6084 84.8643C68.527 84.695 68.4082 84.5729 68.252 84.498C68.0957 84.4199 67.9036 84.3809 67.6758 84.3809C67.4512 84.3809 67.2461 84.4281 67.0605 84.5225C66.8783 84.6169 66.7204 84.7471 66.5869 84.9131C66.4567 85.0791 66.3542 85.2695 66.2793 85.4844C66.2077 85.696 66.1719 85.9206 66.1719 86.1582Z" fill="#373434"/>
<path d="M71.9727 83.7168V89H71.0645V83.7168H71.9727ZM70.9961 82.3154C70.9961 82.1689 71.04 82.0452 71.1279 81.9443C71.2191 81.8434 71.3525 81.793 71.5283 81.793C71.7008 81.793 71.8327 81.8434 71.9238 81.9443C72.0182 82.0452 72.0654 82.1689 72.0654 82.3154C72.0654 82.4554 72.0182 82.5758 71.9238 82.6768C71.8327 82.7744 71.7008 82.8232 71.5283 82.8232C71.3525 82.8232 71.2191 82.7744 71.1279 82.6768C71.04 82.5758 70.9961 82.4554 70.9961 82.3154Z" fill="#373434"/>
<path d="M76.499 87.5986C76.499 87.4684 76.4697 87.348 76.4111 87.2373C76.3558 87.1234 76.2402 87.0208 76.0645 86.9297C75.8919 86.8353 75.6315 86.7539 75.2832 86.6855C74.9902 86.6237 74.7249 86.5505 74.4873 86.4658C74.2529 86.3812 74.0527 86.2786 73.8867 86.1582C73.724 86.0378 73.5986 85.8962 73.5107 85.7334C73.4229 85.5706 73.3789 85.3802 73.3789 85.1621C73.3789 84.9538 73.4245 84.7568 73.5156 84.5713C73.61 84.3857 73.7419 84.2214 73.9111 84.0781C74.0837 83.9349 74.2904 83.8226 74.5312 83.7412C74.7721 83.6598 75.0407 83.6191 75.3369 83.6191C75.7601 83.6191 76.1214 83.694 76.4209 83.8438C76.7204 83.9935 76.9499 84.1937 77.1094 84.4443C77.2689 84.6917 77.3486 84.9668 77.3486 85.2695H76.4453C76.4453 85.123 76.4014 84.9814 76.3135 84.8447C76.2288 84.7048 76.1035 84.5892 75.9375 84.498C75.7747 84.4069 75.5745 84.3613 75.3369 84.3613C75.0863 84.3613 74.8828 84.4004 74.7266 84.4785C74.5736 84.5534 74.4613 84.6494 74.3896 84.7666C74.3213 84.8838 74.2871 85.0075 74.2871 85.1377C74.2871 85.2354 74.3034 85.3232 74.3359 85.4014C74.3717 85.4762 74.4336 85.5462 74.5215 85.6113C74.6094 85.6732 74.7331 85.7318 74.8926 85.7871C75.0521 85.8424 75.2555 85.8978 75.5029 85.9531C75.9359 86.0508 76.2923 86.168 76.5723 86.3047C76.8522 86.4414 77.0605 86.609 77.1973 86.8076C77.334 87.0062 77.4023 87.2471 77.4023 87.5303C77.4023 87.7614 77.3535 87.973 77.2559 88.165C77.1615 88.3571 77.0231 88.5231 76.8408 88.6631C76.6618 88.7998 76.4469 88.9072 76.1963 88.9854C75.9489 89.0602 75.6706 89.0977 75.3613 89.0977C74.8958 89.0977 74.502 89.0146 74.1797 88.8486C73.8574 88.6826 73.6133 88.4678 73.4473 88.2041C73.2812 87.9404 73.1982 87.6621 73.1982 87.3691H74.1064C74.1195 87.6165 74.1911 87.8135 74.3213 87.96C74.4515 88.1032 74.611 88.2057 74.7998 88.2676C74.9886 88.3262 75.1758 88.3555 75.3613 88.3555C75.6087 88.3555 75.8154 88.3229 75.9814 88.2578C76.1507 88.1927 76.2793 88.1032 76.3672 87.9893C76.4551 87.8753 76.499 87.7451 76.499 87.5986Z" fill="#373434"/>
<path d="M80.7812 89.0977C80.4134 89.0977 80.0798 89.0358 79.7803 88.9121C79.484 88.7852 79.2285 88.6077 79.0137 88.3799C78.8021 88.152 78.6393 87.8818 78.5254 87.5693C78.4115 87.2568 78.3545 86.915 78.3545 86.5439V86.3389C78.3545 85.9092 78.418 85.5267 78.5449 85.1914C78.6719 84.8529 78.8444 84.5664 79.0625 84.332C79.2806 84.0977 79.528 83.9202 79.8047 83.7998C80.0814 83.6794 80.3678 83.6191 80.6641 83.6191C81.0417 83.6191 81.3672 83.6842 81.6406 83.8145C81.9173 83.9447 82.1436 84.127 82.3193 84.3613C82.4951 84.5924 82.6253 84.8659 82.71 85.1816C82.7946 85.4941 82.8369 85.8359 82.8369 86.207V86.6123H78.8916V85.875H81.9336V85.8066C81.9206 85.5723 81.8717 85.3444 81.7871 85.123C81.7057 84.9017 81.5755 84.7194 81.3965 84.5762C81.2174 84.4329 80.9733 84.3613 80.6641 84.3613C80.459 84.3613 80.2702 84.4053 80.0977 84.4932C79.9251 84.5778 79.777 84.7048 79.6533 84.874C79.5296 85.0433 79.4336 85.25 79.3652 85.4941C79.2969 85.7383 79.2627 86.0199 79.2627 86.3389V86.5439C79.2627 86.7946 79.2969 87.0306 79.3652 87.252C79.4368 87.4701 79.5394 87.6621 79.6729 87.8281C79.8096 87.9941 79.974 88.1243 80.166 88.2188C80.3613 88.3132 80.5827 88.3604 80.8301 88.3604C81.1491 88.3604 81.4193 88.2952 81.6406 88.165C81.862 88.0348 82.0557 87.8607 82.2217 87.6426L82.7686 88.0771C82.6546 88.2497 82.5098 88.4141 82.334 88.5703C82.1582 88.7266 81.9417 88.8535 81.6846 88.9512C81.4307 89.0488 81.1296 89.0977 80.7812 89.0977Z" fill="#373434"/>
<path d="M87.3535 81.5V89H86.4453V81.5H87.3535Z" fill="#373434"/>
<path d="M88.5645 86.417V86.3047C88.5645 85.9238 88.6198 85.5706 88.7305 85.2451C88.8411 84.9163 89.0007 84.6315 89.209 84.3906C89.4173 84.1465 89.6696 83.9577 89.9658 83.8242C90.262 83.6875 90.5941 83.6191 90.9619 83.6191C91.333 83.6191 91.6667 83.6875 91.9629 83.8242C92.2624 83.9577 92.5163 84.1465 92.7246 84.3906C92.9362 84.6315 93.0973 84.9163 93.208 85.2451C93.3187 85.5706 93.374 85.9238 93.374 86.3047V86.417C93.374 86.7979 93.3187 87.151 93.208 87.4766C93.0973 87.8021 92.9362 88.0869 92.7246 88.3311C92.5163 88.5719 92.264 88.7607 91.9678 88.8975C91.6748 89.0309 91.3428 89.0977 90.9717 89.0977C90.6006 89.0977 90.2669 89.0309 89.9707 88.8975C89.6745 88.7607 89.4206 88.5719 89.209 88.3311C89.0007 88.0869 88.8411 87.8021 88.7305 87.4766C88.6198 87.151 88.5645 86.7979 88.5645 86.417ZM89.4678 86.3047V86.417C89.4678 86.6807 89.4987 86.9297 89.5605 87.1641C89.6224 87.3952 89.7152 87.6003 89.8389 87.7793C89.9658 87.9583 90.1237 88.0999 90.3125 88.2041C90.5013 88.305 90.721 88.3555 90.9717 88.3555C91.2191 88.3555 91.4355 88.305 91.6211 88.2041C91.8099 88.0999 91.9661 87.9583 92.0898 87.7793C92.2135 87.6003 92.3063 87.3952 92.3682 87.1641C92.4333 86.9297 92.4658 86.6807 92.4658 86.417V86.3047C92.4658 86.0443 92.4333 85.7985 92.3682 85.5674C92.3063 85.333 92.2119 85.1263 92.085 84.9473C91.9613 84.765 91.805 84.6217 91.6162 84.5176C91.4307 84.4134 91.2126 84.3613 90.9619 84.3613C90.7145 84.3613 90.4964 84.4134 90.3076 84.5176C90.1221 84.6217 89.9658 84.765 89.8389 84.9473C89.7152 85.1263 89.6224 85.333 89.5605 85.5674C89.4987 85.7985 89.4678 86.0443 89.4678 86.3047Z" fill="#373434"/>
<path d="M97.583 87.5986C97.583 87.4684 97.5537 87.348 97.4951 87.2373C97.4398 87.1234 97.3242 87.0208 97.1484 86.9297C96.9759 86.8353 96.7155 86.7539 96.3672 86.6855C96.0742 86.6237 95.8089 86.5505 95.5713 86.4658C95.3369 86.3812 95.1367 86.2786 94.9707 86.1582C94.8079 86.0378 94.6826 85.8962 94.5947 85.7334C94.5068 85.5706 94.4629 85.3802 94.4629 85.1621C94.4629 84.9538 94.5085 84.7568 94.5996 84.5713C94.694 84.3857 94.8258 84.2214 94.9951 84.0781C95.1676 83.9349 95.3743 83.8226 95.6152 83.7412C95.8561 83.6598 96.1247 83.6191 96.4209 83.6191C96.8441 83.6191 97.2054 83.694 97.5049 83.8438C97.8044 83.9935 98.0339 84.1937 98.1934 84.4443C98.3529 84.6917 98.4326 84.9668 98.4326 85.2695H97.5293C97.5293 85.123 97.4854 84.9814 97.3975 84.8447C97.3128 84.7048 97.1875 84.5892 97.0215 84.498C96.8587 84.4069 96.6585 84.3613 96.4209 84.3613C96.1702 84.3613 95.9668 84.4004 95.8105 84.4785C95.6576 84.5534 95.5452 84.6494 95.4736 84.7666C95.4053 84.8838 95.3711 85.0075 95.3711 85.1377C95.3711 85.2354 95.3874 85.3232 95.4199 85.4014C95.4557 85.4762 95.5176 85.5462 95.6055 85.6113C95.6934 85.6732 95.8171 85.7318 95.9766 85.7871C96.1361 85.8424 96.3395 85.8978 96.5869 85.9531C97.0199 86.0508 97.3763 86.168 97.6562 86.3047C97.9362 86.4414 98.1445 86.609 98.2812 86.8076C98.418 87.0062 98.4863 87.2471 98.4863 87.5303C98.4863 87.7614 98.4375 87.973 98.3398 88.165C98.2454 88.3571 98.1071 88.5231 97.9248 88.6631C97.7458 88.7998 97.5309 88.9072 97.2803 88.9854C97.0329 89.0602 96.7546 89.0977 96.4453 89.0977C95.9798 89.0977 95.5859 89.0146 95.2637 88.8486C94.9414 88.6826 94.6973 88.4678 94.5312 88.2041C94.3652 87.9404 94.2822 87.6621 94.2822 87.3691H95.1904C95.2035 87.6165 95.2751 87.8135 95.4053 87.96C95.5355 88.1032 95.695 88.2057 95.8838 88.2676C96.0726 88.3262 96.2598 88.3555 96.4453 88.3555C96.6927 88.3555 96.8994 88.3229 97.0654 88.2578C97.2347 88.1927 97.3633 88.1032 97.4512 87.9893C97.5391 87.8753 97.583 87.7451 97.583 87.5986Z" fill="#373434"/>
<path d="M102.749 87.5986C102.749 87.4684 102.72 87.348 102.661 87.2373C102.606 87.1234 102.49 87.0208 102.314 86.9297C102.142 86.8353 101.882 86.7539 101.533 86.6855C101.24 86.6237 100.975 86.5505 100.737 86.4658C100.503 86.3812 100.303 86.2786 100.137 86.1582C99.974 86.0378 99.8486 85.8962 99.7607 85.7334C99.6729 85.5706 99.6289 85.3802 99.6289 85.1621C99.6289 84.9538 99.6745 84.7568 99.7656 84.5713C99.86 84.3857 99.9919 84.2214 100.161 84.0781C100.334 83.9349 100.54 83.8226 100.781 83.7412C101.022 83.6598 101.291 83.6191 101.587 83.6191C102.01 83.6191 102.371 83.694 102.671 83.8438C102.97 83.9935 103.2 84.1937 103.359 84.4443C103.519 84.6917 103.599 84.9668 103.599 85.2695H102.695C102.695 85.123 102.651 84.9814 102.563 84.8447C102.479 84.7048 102.354 84.5892 102.188 84.498C102.025 84.4069 101.825 84.3613 101.587 84.3613C101.336 84.3613 101.133 84.4004 100.977 84.4785C100.824 84.5534 100.711 84.6494 100.64 84.7666C100.571 84.8838 100.537 85.0075 100.537 85.1377C100.537 85.2354 100.553 85.3232 100.586 85.4014C100.622 85.4762 100.684 85.5462 100.771 85.6113C100.859 85.6732 100.983 85.7318 101.143 85.7871C101.302 85.8424 101.506 85.8978 101.753 85.9531C102.186 86.0508 102.542 86.168 102.822 86.3047C103.102 86.4414 103.311 86.609 103.447 86.8076C103.584 87.0062 103.652 87.2471 103.652 87.5303C103.652 87.7614 103.604 87.973 103.506 88.165C103.411 88.3571 103.273 88.5231 103.091 88.6631C102.912 88.7998 102.697 88.9072 102.446 88.9854C102.199 89.0602 101.921 89.0977 101.611 89.0977C101.146 89.0977 100.752 89.0146 100.43 88.8486C100.107 88.6826 99.8633 88.4678 99.6973 88.2041C99.5312 87.9404 99.4482 87.6621 99.4482 87.3691H100.356C100.369 87.6165 100.441 87.8135 100.571 87.96C100.701 88.1032 100.861 88.2057 101.05 88.2676C101.239 88.3262 101.426 88.3555 101.611 88.3555C101.859 88.3555 102.065 88.3229 102.231 88.2578C102.401 88.1927 102.529 88.1032 102.617 87.9893C102.705 87.8753 102.749 87.7451 102.749 87.5986Z" fill="#373434"/>
</svg>
