<svg width="69" height="94" viewBox="0 0 69 94" fill="none" xmlns="http://www.w3.org/2000/svg">
<path d="M53.0412 68.3283L34.503 91.5895L16.454 68.826L16.4012 68.7594L16.3413 68.6993L15.9176 68.274C13.507 65.1165 9.89979 59.6737 6.89251 53.5155C3.84506 47.275 1.5 40.4725 1.5 34.6316C1.5 16.1599 16.1124 1.5 34.5 1.5C52.8876 1.5 67.5 16.1599 67.5 34.6316C67.5 35.5123 67.3903 36.4091 67.2651 37.4147L67.26 37.4554C67.1465 38.3666 67.0213 39.3714 67.0082 40.3944C65.801 45.6347 63.4143 51.5062 60.7668 56.6402C58.0785 61.8532 55.2056 66.1427 53.1516 68.2045L53.093 68.2634L53.0412 68.3283ZM40.9286 34.6316C40.9286 32.9089 40.0855 31.3104 38.9511 30.1716C37.817 29.0333 36.222 28.1842 34.5 28.1842C32.778 28.1842 31.183 29.0333 30.0489 30.1716C28.9145 31.3103 28.0714 32.9089 28.0714 34.6316C28.0714 36.3543 28.9145 37.9528 30.0489 39.0915C31.183 40.2299 32.778 41.0789 34.5 41.0789C36.222 41.0789 37.817 40.2299 38.9511 39.0915C40.0855 37.9528 40.9286 36.3543 40.9286 34.6316Z" fill="#FF7474" stroke="#51565F" stroke-width="3"/>
</svg>
